 <svg  version="1.0" xmlns="http://www.w3.org/2000/svg"  width="900.000000pt" height="900.000000pt" viewBox="0 0 900.000000 900.000000"  preserveAspectRatio="xMidYMid meet">  <g transform="translate(0.000000,900.000000) scale(0.050000,-0.050000)" fill="#c6c3be" stroke="none"> <path d="M3960 17950 c-3679 -456 -5248 -4926 -2661 -7577 2400 -2459 6552 -1410 7510 1897 886 3056 -1689 6071 -4849 5680z m1021 -351 c3059 -378 4647 -3813 2949 -6379 -1851 -2796 -6155 -2274 -7299 886 -1035 2859 1345 5864 4350 5493z"/> <path d="M4257 16140 c-157 -25 -349 -93 -465 -163 -97 -59 -99 -60 -224 -35 -157 31 -299 4 -437 -84 l-94 -59 -104 50 c-439 215 -646 60 -916 -684 -170 -472 -283 -651 -444 -704 -80 -26 -80 -47 2 -158 62 -83 149 -137 250 -154 l79 -13 -73 -60 c-162 -134 -194 -323 -90 -532 l62 -123 -73 -181 c-528 -1319 584 -2326 2623 -2374 2260 -55 3585 1082 2885 2477 l-37 73 58 107 c115 214 94 383 -67 539 l-75 72 65 13 c111 23 235 108 278 193 51 99 52 93 -28 119 -158 53 -255 212 -455 746 -264 707 -454 849 -877 653 l-137 -62 -46 44 c-114 109 -321 149 -504 98 -71 -19 -90 -15 -240 60 -269 135 -619 189 -916 142z m563 -303 c61 -12 154 -45 208 -74 l99 -53 -126 -14 c-170 -19 -285 -61 -404 -146 l-99 -72 -62 52 c-118 100 -308 169 -463 170 -185 0 86 129 335 159 154 18 339 10 512 -22z m-1144 -186 c185 -25 479 -193 698 -398 l126 -117 135 119 c506 448 973 533 1301 236 l82 -74 30 59 c186 359 412 190 703 -527 63 -153 131 -313 152 -355 l38 -75 -74 31 c-105 44 -105 44 -447 390 -477 483 -714 539 -1175 277 -138 -78 -133 -82 30 -22 468 172 755 37 999 -473 61 -128 128 -256 148 -285 l38 -53 -125 41 c-87 28 -183 41 -316 43 l-191 2 0 130 c1 87 -11 152 -35 197 -20 37 -32 71 -26 76 18 18 168 -33 223 -76 l55 -44 -15 69 c-75 352 -259 391 -666 143 -445 -271 -539 -285 -639 -96 -26 49 -58 -118 -36 -187 8 -23 9 -42 3 -42 -26 0 -118 166 -151 272 l-35 114 -35 -111 c-19 -61 -61 -150 -93 -198 l-58 -87 0 112 c0 136 -16 156 -63 78 -71 -117 -197 -105 -440 43 -577 354 -720 355 -824 4 l-30 -104 71 49 c40 26 82 48 94 48 12 0 43 6 69 13 47 13 47 12 15 -49 -35 -67 -43 -234 -14 -308 l17 -46 -202 -2 c-147 -1 -238 -13 -328 -43 -109 -35 -166 -33 -105 5 12 7 79 133 149 279 251 520 518 655 981 495 176 -60 160 -36 -40 60 -386 185 -647 128 -968 -211 -322 -340 -416 -429 -498 -471 -107 -55 -132 -55 -103 0 13 23 79 180 148 349 296 720 485 882 682 587 l62 -92 78 67 c138 117 350 194 479 175 22 -3 79 -11 126 -17z m-156 -808 c107 -33 110 -36 116 -114 10 -127 108 -170 198 -85 44 41 49 41 80 11 31 -31 29 -35 -26 -56 -132 -52 -138 -59 -43 -46 127 16 251 -5 334 -56 l69 -41 -109 -53 c-80 -39 -120 -73 -149 -129 l-40 -76 60 -44 c137 -100 340 -280 384 -339 68 -92 22 -140 -84 -89 -62 30 -77 30 -116 6 -40 -26 -56 -21 -189 55 l-146 83 6 215 c3 118 -1 215 -9 215 -36 0 -166 -157 -211 -255 -45 -99 -54 -107 -101 -95 -322 81 -937 3 -986 -125 -121 -319 173 -941 611 -1290 l99 -79 25 145 c117 698 1024 1068 1811 740 337 -140 615 -487 616 -770 1 -118 24 -117 168 4 368 309 572 704 572 1106 0 198 7 190 -224 250 -248 64 -526 71 -766 19 -56 -12 -62 -7 -97 78 -33 83 -179 272 -210 272 -7 0 -13 -96 -13 -213 0 -168 -6 -216 -30 -230 -16 -10 -83 -49 -148 -88 -111 -66 -120 -68 -155 -36 -35 31 -41 31 -104 -3 -72 -39 -133 -30 -133 19 0 56 240 279 477 444 53 36 -182 246 -278 247 -50 1 66 76 156 101 50 14 134 19 200 13 l115 -12 -100 45 c-98 45 -99 46 -53 71 41 22 53 20 91 -16 91 -86 192 -40 192 86 0 145 274 203 304 65 41 -193 -60 -308 -253 -286 l-101 11 160 -63 160 -63 -126 -25 c-199 -41 -213 -61 -53 -76 656 -59 951 -107 1170 -189 437 -165 473 -504 108 -1025 -60 -86 -105 -157 -98 -157 40 0 138 74 225 170 126 138 135 122 119 -207 -13 -255 -73 -459 -194 -663 -114 -192 -463 -536 -413 -407 56 144 47 490 -17 685 -49 147 -64 140 -77 -34 -28 -385 -280 -808 -662 -1110 l-79 -63 72 105 c91 131 155 302 169 444 l11 110 -72 -140 c-454 -890 -2110 -847 -2485 65 -40 98 -47 106 -47 55 -1 -156 87 -404 192 -545 88 -117 14 -69 -168 110 -335 327 -520 700 -526 1059 l-2 76 -36 -81 c-79 -177 -101 -414 -60 -637 30 -160 24 -158 -165 31 -313 315 -468 727 -425 1130 16 149 21 151 94 46 50 -72 231 -210 250 -191 4 5 -33 64 -84 132 -476 647 -313 1008 519 1148 152 26 770 91 869 92 64 1 -25 37 -157 63 l-129 26 118 54 119 55 -73 1 c-147 2 -236 132 -207 301 16 92 26 94 190 43z m289 -1244 c12 -63 8 -74 -35 -94 -27 -12 -82 -51 -122 -86 l-72 -63 0 129 c0 159 61 405 135 540 l55 102 12 -228 c7 -126 19 -261 27 -300z m1500 403 c63 -124 105 -293 122 -492 l14 -160 -48 42 c-26 24 -84 67 -129 96 -81 53 -82 55 -66 138 9 46 17 177 17 290 1 227 13 239 90 86z m-1791 -327 c-1 -47 -8 -133 -15 -193 l-13 -107 -120 165 c-66 92 -127 178 -136 193 -13 22 14 27 135 27 l151 0 -2 -85z m1609 -111 c-2 -4 -49 13 -106 37 l-103 45 96 55 96 55 10 -93 c6 -51 9 -96 7 -99z m653 183 c0 -18 -221 -323 -254 -350 -21 -18 -26 13 -26 171 l0 192 140 0 c77 0 140 -6 140 -13z m-2673 -243 c-11 -211 10 -486 46 -601 21 -67 -114 111 -180 237 -80 153 -129 299 -137 409 l-6 78 140 55 c77 31 142 56 145 57 2 0 -1 -105 -8 -235z m894 196 c43 -23 79 -45 79 -51 0 -9 -172 -89 -192 -89 -4 0 -8 41 -8 90 0 102 10 106 121 50z m2044 -20 c118 -43 135 -56 135 -101 0 -152 -136 -477 -260 -621 l-60 -68 15 90 c8 50 15 241 15 425 0 184 5 333 10 330 6 -3 71 -27 145 -55z m-2677 -239 l113 -140 -145 -119 c-175 -145 -167 -151 -138 113 39 337 25 325 170 146z m2412 113 c0 -15 13 -129 30 -254 36 -275 46 -264 -122 -131 -165 132 -163 118 -38 280 100 130 130 154 130 105z"/> </g> </svg> 